<?xml version="1.0" encoding="us-ascii" standalone="no"?><svg xmlns="http://www.w3.org/2000/svg" xmlns:xlink="http://www.w3.org/1999/xlink" contentStyleType="text/css" height="838px" preserveAspectRatio="none" style="width:972px;height:838px;background:#FFFFFF;" version="1.1" viewBox="0 0 972 838" width="972px" zoomAndPan="magnify"><defs/><g><rect fill="none" height="414.5703" style="stroke:#000000;stroke-width:1.5;" width="955" x="10" y="264.3672"/><rect fill="none" height="306.5156" style="stroke:#000000;stroke-width:1.5;" width="935" x="20" y="333.0703"/><line style="stroke:#181818;stroke-width:0.5;stroke-dasharray:5.0,5.0;" x1="57" x2="57" y1="82.6094" y2="756.6406"/><line style="stroke:#181818;stroke-width:0.5;stroke-dasharray:5.0,5.0;" x1="239" x2="239" y1="82.6094" y2="756.6406"/><line style="stroke:#181818;stroke-width:0.5;stroke-dasharray:5.0,5.0;" x1="486.5" x2="486.5" y1="82.6094" y2="756.6406"/><line style="stroke:#181818;stroke-width:0.5;stroke-dasharray:5.0,5.0;" x1="591.5" x2="591.5" y1="82.6094" y2="756.6406"/><line style="stroke:#181818;stroke-width:0.5;stroke-dasharray:5.0,5.0;" x1="756.5" x2="756.5" y1="82.6094" y2="756.6406"/><text fill="#000000" font-family="sans-serif" font-size="14" lengthAdjust="spacing" textLength="48" x="30" y="79.5332">Usuario</text><ellipse cx="57" cy="13.5" fill="#E2E2F0" rx="8" ry="8" style="stroke:#181818;stroke-width:0.5;"/><path d="M57,21.5 L57,48.5 M44,29.5 L70,29.5 M57,48.5 L44,63.5 M57,48.5 L70,63.5 " fill="none" style="stroke:#181818;stroke-width:0.5;"/><text fill="#000000" font-family="sans-serif" font-size="14" lengthAdjust="spacing" textLength="48" x="30" y="770.1738">Usuario</text><ellipse cx="57" cy="781.75" fill="#E2E2F0" rx="8" ry="8" style="stroke:#181818;stroke-width:0.5;"/><path d="M57,789.75 L57,816.75 M44,797.75 L70,797.75 M57,816.75 L44,831.75 M57,816.75 L70,831.75 " fill="none" style="stroke:#181818;stroke-width:0.5;"/><rect fill="#E2E2F0" height="31.6094" rx="2.5" ry="2.5" style="stroke:#181818;stroke-width:0.5;" width="44" x="217" y="50"/><text fill="#000000" font-family="sans-serif" font-size="14" lengthAdjust="spacing" textLength="30" x="224" y="71.5332">Main</text><rect fill="#E2E2F0" height="31.6094" rx="2.5" ry="2.5" style="stroke:#181818;stroke-width:0.5;" width="44" x="217" y="755.6406"/><text fill="#000000" font-family="sans-serif" font-size="14" lengthAdjust="spacing" textLength="30" x="224" y="777.1738">Main</text><rect fill="#E2E2F0" height="31.6094" rx="2.5" ry="2.5" style="stroke:#181818;stroke-width:0.5;" width="141" x="416.5" y="50"/><text fill="#000000" font-family="sans-serif" font-size="14" lengthAdjust="spacing" textLength="127" x="423.5" y="71.5332">RegistroEstudiantes</text><rect fill="#E2E2F0" height="31.6094" rx="2.5" ry="2.5" style="stroke:#181818;stroke-width:0.5;" width="141" x="416.5" y="755.6406"/><text fill="#000000" font-family="sans-serif" font-size="14" lengthAdjust="spacing" textLength="127" x="423.5" y="777.1738">RegistroEstudiantes</text><rect fill="#E2E2F0" height="31.6094" rx="2.5" ry="2.5" style="stroke:#181818;stroke-width:0.5;" width="49" x="567.5" y="50"/><text fill="#000000" font-family="sans-serif" font-size="14" lengthAdjust="spacing" textLength="35" x="574.5" y="71.5332">Proxy</text><rect fill="#E2E2F0" height="31.6094" rx="2.5" ry="2.5" style="stroke:#181818;stroke-width:0.5;" width="49" x="567.5" y="755.6406"/><text fill="#000000" font-family="sans-serif" font-size="14" lengthAdjust="spacing" textLength="35" x="574.5" y="777.1738">Proxy</text><rect fill="#E2E2F0" height="31.6094" rx="2.5" ry="2.5" style="stroke:#181818;stroke-width:0.5;" width="119" x="697.5" y="50"/><text fill="#000000" font-family="sans-serif" font-size="14" lengthAdjust="spacing" textLength="105" x="704.5" y="71.5332">ConcreteSubject</text><rect fill="#E2E2F0" height="31.6094" rx="2.5" ry="2.5" style="stroke:#181818;stroke-width:0.5;" width="119" x="697.5" y="755.6406"/><text fill="#000000" font-family="sans-serif" font-size="14" lengthAdjust="spacing" textLength="105" x="704.5" y="777.1738">ConcreteSubject</text><polygon fill="#181818" points="227,110.9609,237,114.9609,227,118.9609,231,114.9609" style="stroke:#181818;stroke-width:1.0;"/><line style="stroke:#181818;stroke-width:1.0;" x1="57" x2="233" y1="114.9609" y2="114.9609"/><text fill="#000000" font-family="sans-serif" font-size="13" lengthAdjust="spacing" textLength="116" x="64" y="110.1045">Ejecuta el programa</text><line style="stroke:#181818;stroke-width:1.0;" x1="239" x2="281" y1="145.3125" y2="145.3125"/><line style="stroke:#181818;stroke-width:1.0;" x1="281" x2="281" y1="145.3125" y2="158.3125"/><line style="stroke:#181818;stroke-width:1.0;" x1="240" x2="281" y1="158.3125" y2="158.3125"/><polygon fill="#181818" points="250,154.3125,240,158.3125,250,162.3125,246,158.3125" style="stroke:#181818;stroke-width:1.0;"/><text fill="#000000" font-family="sans-serif" font-size="13" lengthAdjust="spacing" textLength="103" x="246" y="140.4561">Muestra opciones</text><polygon fill="#181818" points="227,184.6641,237,188.6641,227,192.6641,231,188.6641" style="stroke:#181818;stroke-width:1.0;"/><line style="stroke:#181818;stroke-width:1.0;" x1="57" x2="233" y1="188.6641" y2="188.6641"/><text fill="#000000" font-family="sans-serif" font-size="13" lengthAdjust="spacing" textLength="154" x="64" y="183.8076">Selecciona "Iniciar sesi&#243;n"</text><polygon fill="#181818" points="475,215.0156,485,219.0156,475,223.0156,479,219.0156" style="stroke:#181818;stroke-width:1.0;"/><line style="stroke:#181818;stroke-width:1.0;" x1="239" x2="481" y1="219.0156" y2="219.0156"/><text fill="#000000" font-family="sans-serif" font-size="13" lengthAdjust="spacing" textLength="159" x="246" y="214.1592">Validar estudiante (nombre)</text><polygon fill="#181818" points="250,245.3672,240,249.3672,250,253.3672,246,249.3672" style="stroke:#181818;stroke-width:1.0;"/><line style="stroke:#181818;stroke-width:1.0;stroke-dasharray:2.0,2.0;" x1="244" x2="486" y1="249.3672" y2="249.3672"/><text fill="#000000" font-family="sans-serif" font-size="13" lengthAdjust="spacing" textLength="224" x="256" y="244.5107">Estudiante encontrado / no encontrado</text><path d="M10,264.3672 L71,264.3672 L71,272.7188 L61,282.7188 L10,282.7188 L10,264.3672 " fill="#EEEEEE" style="stroke:#000000;stroke-width:1.5;"/><rect fill="none" height="414.5703" style="stroke:#000000;stroke-width:1.5;" width="955" x="10" y="264.3672"/><text fill="#000000" font-family="sans-serif" font-size="13" font-weight="bold" lengthAdjust="spacing" textLength="16" x="25" y="278.8623">alt</text><text fill="#000000" font-family="sans-serif" font-size="11" font-weight="bold" lengthAdjust="spacing" textLength="101" x="86" y="277.7861">[Estudiante v&#225;lido]</text><line style="stroke:#181818;stroke-width:1.0;" x1="239" x2="281" y1="305.0703" y2="305.0703"/><line style="stroke:#181818;stroke-width:1.0;" x1="281" x2="281" y1="305.0703" y2="318.0703"/><line style="stroke:#181818;stroke-width:1.0;" x1="240" x2="281" y1="318.0703" y2="318.0703"/><polygon fill="#181818" points="250,314.0703,240,318.0703,250,322.0703,246,318.0703" style="stroke:#181818;stroke-width:1.0;"/><text fill="#000000" font-family="sans-serif" font-size="13" lengthAdjust="spacing" textLength="104" x="246" y="300.2139">Valida contrase&#241;a</text><path d="M20,333.0703 L81,333.0703 L81,341.4219 L71,351.4219 L20,351.4219 L20,333.0703 " fill="#EEEEEE" style="stroke:#000000;stroke-width:1.5;"/><rect fill="none" height="306.5156" style="stroke:#000000;stroke-width:1.5;" width="935" x="20" y="333.0703"/><text fill="#000000" font-family="sans-serif" font-size="13" font-weight="bold" lengthAdjust="spacing" textLength="16" x="35" y="347.5654">alt</text><text fill="#000000" font-family="sans-serif" font-size="11" font-weight="bold" lengthAdjust="spacing" textLength="121" x="96" y="346.4893">[Contrase&#241;a correcta]</text><polygon fill="#181818" points="68,369.7734,58,373.7734,68,377.7734,64,373.7734" style="stroke:#181818;stroke-width:1.0;"/><line style="stroke:#181818;stroke-width:1.0;" x1="62" x2="238" y1="373.7734" y2="373.7734"/><text fill="#000000" font-family="sans-serif" font-size="13" lengthAdjust="spacing" textLength="111" x="74" y="368.917">Muestra bienvenida</text><polygon fill="#181818" points="227,400.125,237,404.125,227,408.125,231,404.125" style="stroke:#181818;stroke-width:1.0;"/><line style="stroke:#181818;stroke-width:1.0;" x1="57" x2="233" y1="404.125" y2="404.125"/><text fill="#000000" font-family="sans-serif" font-size="13" lengthAdjust="spacing" textLength="158" x="64" y="399.2686">Selecciona "Postular beca"</text><polygon fill="#181818" points="580,430.4766,590,434.4766,580,438.4766,584,434.4766" style="stroke:#181818;stroke-width:1.0;"/><line style="stroke:#181818;stroke-width:1.0;" x1="239" x2="586" y1="434.4766" y2="434.4766"/><text fill="#000000" font-family="sans-serif" font-size="13" lengthAdjust="spacing" textLength="141" x="246" y="429.6201">verificarBeca(estudiante)</text><polygon fill="#181818" points="745,460.8281,755,464.8281,745,468.8281,749,464.8281" style="stroke:#181818;stroke-width:1.0;"/><line style="stroke:#181818;stroke-width:1.0;" x1="592" x2="751" y1="464.8281" y2="464.8281"/><text fill="#000000" font-family="sans-serif" font-size="13" lengthAdjust="spacing" textLength="141" x="599" y="459.9717">verificarBeca(estudiante)</text><line style="stroke:#181818;stroke-width:1.0;" x1="757" x2="799" y1="495.1797" y2="495.1797"/><line style="stroke:#181818;stroke-width:1.0;" x1="799" x2="799" y1="495.1797" y2="508.1797"/><line style="stroke:#181818;stroke-width:1.0;" x1="758" x2="799" y1="508.1797" y2="508.1797"/><polygon fill="#181818" points="768,504.1797,758,508.1797,768,512.1797,764,508.1797" style="stroke:#181818;stroke-width:1.0;"/><text fill="#000000" font-family="sans-serif" font-size="13" lengthAdjust="spacing" textLength="179" x="764" y="490.3232">Analiza promedio y elegibilidad</text><polygon fill="#181818" points="603,534.5313,593,538.5313,603,542.5313,599,538.5313" style="stroke:#181818;stroke-width:1.0;"/><line style="stroke:#181818;stroke-width:1.0;stroke-dasharray:2.0,2.0;" x1="597" x2="756" y1="538.5313" y2="538.5313"/><text fill="#000000" font-family="sans-serif" font-size="13" lengthAdjust="spacing" textLength="58" x="609" y="533.6748">Resultado</text><polygon fill="#181818" points="250,564.8828,240,568.8828,250,572.8828,246,568.8828" style="stroke:#181818;stroke-width:1.0;"/><line style="stroke:#181818;stroke-width:1.0;" x1="244" x2="591" y1="568.8828" y2="568.8828"/><text fill="#000000" font-family="sans-serif" font-size="13" lengthAdjust="spacing" textLength="122" x="256" y="564.0264">Resultado de la beca</text><polygon fill="#181818" points="68,595.2344,58,599.2344,68,603.2344,64,599.2344" style="stroke:#181818;stroke-width:1.0;"/><line style="stroke:#181818;stroke-width:1.0;" x1="62" x2="238" y1="599.2344" y2="599.2344"/><text fill="#000000" font-family="sans-serif" font-size="13" lengthAdjust="spacing" textLength="104" x="74" y="594.3779">Muestra resultado</text><line style="stroke:#000000;stroke-width:1.0;stroke-dasharray:2.0,2.0;" x1="20" x2="955" y1="608.2344" y2="608.2344"/><polygon fill="#181818" points="68,627.5859,58,631.5859,68,635.5859,64,631.5859" style="stroke:#181818;stroke-width:1.0;"/><line style="stroke:#181818;stroke-width:1.0;" x1="62" x2="238" y1="631.5859" y2="631.5859"/><text fill="#000000" font-family="sans-serif" font-size="13" lengthAdjust="spacing" textLength="143" x="74" y="626.7295">Credenciales incorrectas</text><line style="stroke:#000000;stroke-width:1.0;stroke-dasharray:2.0,2.0;" x1="10" x2="965" y1="647.5859" y2="647.5859"/><polygon fill="#181818" points="68,666.9375,58,670.9375,68,674.9375,64,670.9375" style="stroke:#181818;stroke-width:1.0;"/><line style="stroke:#181818;stroke-width:1.0;" x1="62" x2="238" y1="670.9375" y2="670.9375"/><text fill="#000000" font-family="sans-serif" font-size="13" lengthAdjust="spacing" textLength="148" x="74" y="666.0811">Estudiante no encontrado</text><polygon fill="#181818" points="227,704.2891,237,708.2891,227,712.2891,231,708.2891" style="stroke:#181818;stroke-width:1.0;"/><line style="stroke:#181818;stroke-width:1.0;" x1="57" x2="233" y1="708.2891" y2="708.2891"/><text fill="#000000" font-family="sans-serif" font-size="13" lengthAdjust="spacing" textLength="104" x="64" y="703.4326">Selecciona "Salir"</text><polygon fill="#181818" points="68,734.6406,58,738.6406,68,742.6406,64,738.6406" style="stroke:#181818;stroke-width:1.0;"/><line style="stroke:#181818;stroke-width:1.0;" x1="62" x2="238" y1="738.6406" y2="738.6406"/><text fill="#000000" font-family="sans-serif" font-size="13" lengthAdjust="spacing" textLength="110" x="74" y="733.7842">Muestra despedida</text><!--SRC=[ZL91JiCm4Bpx5QkSog7YtWCIL1mu85MjuBwn5sJasj7QgO3Vy0J44_enracJr421d1plp7XsTb6dm70NMsGR02EqaLWroCbgsw1FKDsYzLKkRULGbjRqQ6FYS1rJQwnSKUoGVBWlqIiEpozTlScdihWCNZCbshJr4-dKmVJXJgdi2kONdOK5N0kYJGZaij8ZunPLhao8svRaVOJGQ1iynIy26tAaSmMXkl7Y0HaYHRl_yDMeD3InW7jqrWY4nZPXviEsPZfJ0mhcaxq9Hbvw42Ccm3duSFIl5Bfq3Dtjt-ILe42-ifd-UUYPaVRls84oVpdTIPrPakkBnogvzocIsfBVaHV54NWwd5KGWqvQhqbZzKsvc-C2TiJsmMhaAq7DffJEHa87p8nXfFyX3TYIT-abZbVCabioihGliWSoXDhcbCmFxCdeccBh4XvIBeprlOy0C0GEkxR_o9CBJNAHJX2MJ4RcRz5H1Ek7SSMUvuqQkINlQ4VA3SgSNnPx8pdnjCwbQqEnaVGCVW80]--></g></svg>