<?xml version="1.0" encoding="us-ascii" standalone="no"?><svg xmlns="http://www.w3.org/2000/svg" xmlns:xlink="http://www.w3.org/1999/xlink" contentStyleType="text/css" height="461px" preserveAspectRatio="none" style="width:581px;height:461px;background:#FFFFFF;" version="1.1" viewBox="0 0 581 461" width="581px" zoomAndPan="magnify"><defs/><g><rect fill="none" height="111.4063" style="stroke:#000000;stroke-width:1.5;" width="564.5" x="10" y="190.6641"/><line style="stroke:#181818;stroke-width:0.5;stroke-dasharray:5.0,5.0;" x1="47" x2="47" y1="82.6094" y2="379.7734"/><line style="stroke:#181818;stroke-width:0.5;stroke-dasharray:5.0,5.0;" x1="187" x2="187" y1="82.6094" y2="379.7734"/><line style="stroke:#181818;stroke-width:0.5;stroke-dasharray:5.0,5.0;" x1="434.5" x2="434.5" y1="82.6094" y2="379.7734"/><line style="stroke:#181818;stroke-width:0.5;stroke-dasharray:5.0,5.0;" x1="539.5" x2="539.5" y1="82.6094" y2="379.7734"/><text fill="#000000" font-family="sans-serif" font-size="14" lengthAdjust="spacing" textLength="48" x="20" y="79.5332">Usuario</text><ellipse cx="47" cy="13.5" fill="#E2E2F0" rx="8" ry="8" style="stroke:#181818;stroke-width:0.5;"/><path d="M47,21.5 L47,48.5 M34,29.5 L60,29.5 M47,48.5 L34,63.5 M47,48.5 L60,63.5 " fill="none" style="stroke:#181818;stroke-width:0.5;"/><text fill="#000000" font-family="sans-serif" font-size="14" lengthAdjust="spacing" textLength="48" x="20" y="393.3066">Usuario</text><ellipse cx="47" cy="404.8828" fill="#E2E2F0" rx="8" ry="8" style="stroke:#181818;stroke-width:0.5;"/><path d="M47,412.8828 L47,439.8828 M34,420.8828 L60,420.8828 M47,439.8828 L34,454.8828 M47,439.8828 L60,454.8828 " fill="none" style="stroke:#181818;stroke-width:0.5;"/><rect fill="#E2E2F0" height="31.6094" rx="2.5" ry="2.5" style="stroke:#181818;stroke-width:0.5;" width="44" x="165" y="50"/><text fill="#000000" font-family="sans-serif" font-size="14" lengthAdjust="spacing" textLength="30" x="172" y="71.5332">Main</text><rect fill="#E2E2F0" height="31.6094" rx="2.5" ry="2.5" style="stroke:#181818;stroke-width:0.5;" width="44" x="165" y="378.7734"/><text fill="#000000" font-family="sans-serif" font-size="14" lengthAdjust="spacing" textLength="30" x="172" y="400.3066">Main</text><rect fill="#E2E2F0" height="31.6094" rx="2.5" ry="2.5" style="stroke:#181818;stroke-width:0.5;" width="141" x="364.5" y="50"/><text fill="#000000" font-family="sans-serif" font-size="14" lengthAdjust="spacing" textLength="127" x="371.5" y="71.5332">RegistroEstudiantes</text><rect fill="#E2E2F0" height="31.6094" rx="2.5" ry="2.5" style="stroke:#181818;stroke-width:0.5;" width="141" x="364.5" y="378.7734"/><text fill="#000000" font-family="sans-serif" font-size="14" lengthAdjust="spacing" textLength="127" x="371.5" y="400.3066">RegistroEstudiantes</text><rect fill="#E2E2F0" height="31.6094" rx="2.5" ry="2.5" style="stroke:#181818;stroke-width:0.5;" width="49" x="515.5" y="50"/><text fill="#000000" font-family="sans-serif" font-size="14" lengthAdjust="spacing" textLength="35" x="522.5" y="71.5332">Proxy</text><rect fill="#E2E2F0" height="31.6094" rx="2.5" ry="2.5" style="stroke:#181818;stroke-width:0.5;" width="49" x="515.5" y="378.7734"/><text fill="#000000" font-family="sans-serif" font-size="14" lengthAdjust="spacing" textLength="35" x="522.5" y="400.3066">Proxy</text><polygon fill="#181818" points="175,110.9609,185,114.9609,175,118.9609,179,114.9609" style="stroke:#181818;stroke-width:1.0;"/><line style="stroke:#181818;stroke-width:1.0;" x1="47" x2="181" y1="114.9609" y2="114.9609"/><text fill="#000000" font-family="sans-serif" font-size="13" lengthAdjust="spacing" textLength="116" x="54" y="110.1045">Ejecuta el programa</text><polygon fill="#181818" points="423,141.3125,433,145.3125,423,149.3125,427,145.3125" style="stroke:#181818;stroke-width:1.0;"/><line style="stroke:#181818;stroke-width:1.0;" x1="187" x2="429" y1="145.3125" y2="145.3125"/><text fill="#000000" font-family="sans-serif" font-size="13" lengthAdjust="spacing" textLength="104" x="194" y="140.4561">Validar estudiante</text><polygon fill="#181818" points="198,171.6641,188,175.6641,198,179.6641,194,175.6641" style="stroke:#181818;stroke-width:1.0;"/><line style="stroke:#181818;stroke-width:1.0;stroke-dasharray:2.0,2.0;" x1="192" x2="434" y1="175.6641" y2="175.6641"/><text fill="#000000" font-family="sans-serif" font-size="13" lengthAdjust="spacing" textLength="224" x="204" y="170.8076">Estudiante encontrado / no encontrado</text><path d="M10,190.6641 L71,190.6641 L71,199.0156 L61,209.0156 L10,209.0156 L10,190.6641 " fill="#EEEEEE" style="stroke:#000000;stroke-width:1.5;"/><rect fill="none" height="111.4063" style="stroke:#000000;stroke-width:1.5;" width="564.5" x="10" y="190.6641"/><text fill="#000000" font-family="sans-serif" font-size="13" font-weight="bold" lengthAdjust="spacing" textLength="16" x="25" y="205.1592">alt</text><text fill="#000000" font-family="sans-serif" font-size="11" font-weight="bold" lengthAdjust="spacing" textLength="101" x="86" y="204.083">[Estudiante v&#225;lido]</text><polygon fill="#181818" points="528,227.3672,538,231.3672,528,235.3672,532,231.3672" style="stroke:#181818;stroke-width:1.0;"/><line style="stroke:#181818;stroke-width:1.0;" x1="187" x2="534" y1="231.3672" y2="231.3672"/><text fill="#000000" font-family="sans-serif" font-size="13" lengthAdjust="spacing" textLength="79" x="194" y="226.5107">Verificar beca</text><polygon fill="#181818" points="198,257.7188,188,261.7188,198,265.7188,194,261.7188" style="stroke:#181818;stroke-width:1.0;"/><line style="stroke:#181818;stroke-width:1.0;" x1="192" x2="539" y1="261.7188" y2="261.7188"/><text fill="#000000" font-family="sans-serif" font-size="13" lengthAdjust="spacing" textLength="122" x="204" y="256.8623">Resultado de la beca</text><line style="stroke:#000000;stroke-width:1.0;stroke-dasharray:2.0,2.0;" x1="10" x2="574.5" y1="270.7188" y2="270.7188"/><polygon fill="#181818" points="58,290.0703,48,294.0703,58,298.0703,54,294.0703" style="stroke:#181818;stroke-width:1.0;"/><line style="stroke:#181818;stroke-width:1.0;" x1="52" x2="186" y1="294.0703" y2="294.0703"/><text fill="#000000" font-family="sans-serif" font-size="13" lengthAdjust="spacing" textLength="74" x="64" y="289.2139">Mostrar error</text><polygon fill="#181818" points="175,327.4219,185,331.4219,175,335.4219,179,331.4219" style="stroke:#181818;stroke-width:1.0;"/><line style="stroke:#181818;stroke-width:1.0;" x1="47" x2="181" y1="331.4219" y2="331.4219"/><text fill="#000000" font-family="sans-serif" font-size="13" lengthAdjust="spacing" textLength="26" x="54" y="326.5654">Salir</text><polygon fill="#181818" points="58,357.7734,48,361.7734,58,365.7734,54,361.7734" style="stroke:#181818;stroke-width:1.0;"/><line style="stroke:#181818;stroke-width:1.0;" x1="52" x2="186" y1="361.7734" y2="361.7734"/><text fill="#000000" font-family="sans-serif" font-size="13" lengthAdjust="spacing" textLength="107" x="64" y="356.917">Mostrar despedida</text><!--SRC=[RP11JWCn34NtFeNLVSL-5kowh8IAO6yIKncbySX9AZWEP-5YE85fEuYi7B-V_-rGg6huL1gPA5B1LjXW9giIPAPSSRCdoPkEJbwiqO6FKghfhjGMnLjSXj9- -slrW-dxn-1phm1w5cxlX_64kpSEhH9owlneT2Bef2iMmmcVAKaaGxv4mW9nU_MwKEGSD5UZg7Y7MM_k09JghVJyzUdc2kXdIHwZUYoRl4hmu1SED1I3NCS_S6cfzfZ8cEX7nwdmogwlFE5UVTw-X9aQS8v__-BHjpJu_r7aCdFqJ_W6]--></g></svg>